<svg width="800" height="800" viewBox="0 0 800 800" fill="none" xmlns="http://www.w3.org/2000/svg">
<path d="M506.75 651.75H140.625C122.402 651.717 104.934 644.463 92.0479 631.577C79.1619 618.691 71.908 601.223 71.875 583V217C71.908 198.777 79.1619 181.309 92.0479 168.423C104.934 155.537 122.402 148.283 140.625 148.25H506.75C524.973 148.283 542.441 155.537 555.327 168.423C568.213 181.309 575.467 198.777 575.5 217V583C575.467 601.223 568.213 618.691 555.327 631.577C542.441 644.463 524.973 651.717 506.75 651.75ZM140.625 185.75C132.337 185.75 124.388 189.042 118.528 194.903C112.667 200.763 109.375 208.712 109.375 217V583C109.375 591.288 112.667 599.237 118.528 605.097C124.388 610.958 132.337 614.25 140.625 614.25H506.75C515.038 614.25 522.987 610.958 528.847 605.097C534.708 599.237 538 591.288 538 583V217C538 208.712 534.708 200.763 528.847 194.903C522.987 189.042 515.038 185.75 506.75 185.75H140.625Z" fill="white"/>
<path d="M709.375 565.625C706.463 565.646 703.589 564.959 701 563.625L548.375 487.5C545.14 486.02 542.396 483.644 540.469 480.653C538.542 477.663 537.512 474.183 537.5 470.625V329.5C537.488 325.921 538.507 322.414 540.435 319.399C542.364 316.384 545.121 313.989 548.375 312.5L701 236.125C703.853 234.662 707.035 233.959 710.238 234.086C713.442 234.213 716.559 235.165 719.287 236.85C722.015 238.534 724.261 240.894 725.81 243.702C727.358 246.509 728.156 249.669 728.125 252.875V546.625C728.091 549.802 727.261 552.92 725.71 555.693C724.16 558.467 721.939 560.807 719.25 562.5C716.29 564.391 712.884 565.468 709.375 565.625ZM575 459L690.125 516.5V283.5L575 341.125V459Z" fill="white"/>
<rect x="305" y="245" width="38" height="310" fill="white"/>
<rect x="169" y="419" width="38" height="310" transform="rotate(-90 169 419)" fill="white"/>
</svg>
