<svg width="799" height="800" viewBox="0 0 799 800" fill="none" xmlns="http://www.w3.org/2000/svg">
<path d="M513.353 256.724C250.682 266.609 113.643 507.733 71.3403 646.52C68.2337 656.713 76.0463 666.667 86.7023 666.667C93.1637 666.667 99.0267 662.76 101.778 656.913C200.393 447.37 422.553 410.507 516.133 418.797C524.277 419.52 530.11 426.52 530.11 434.697V504.157C530.11 518.89 547.827 526.377 558.393 516.11L688.92 389.28C694.743 383.623 695.643 374.593 691.05 367.9L560.52 177.655C551.257 164.152 530.11 170.709 530.11 187.084V239.744C530.11 248.948 522.55 256.378 513.353 256.724Z" stroke="#F1F1F1" stroke-width="33.3333" stroke-linecap="round" stroke-linejoin="round"/>
</svg>
